# xmcd CD database file
# Copyright (C) 1993-1998 Ti Kan
# 
# Track frame offsets:
#	150
#	2681
#	23147
#	45501
#	64970
#	82026
#	98925
#	119381
#	140775
#	159774
#	179147
#	194892
#
# Disc length: 2944 seconds
# 
# Revision: 1
# Processed by: cddbd v1.4b41PL1 Copyright (c) Steve Scherf et al.
# Submitted via: DiscPlay 4.0.4
# 
DISCID=aa0b7e0c
DTITLE=Simone Bittencourt de Oliveira - Simone-Caf  Com Leite
DYEAR=1900
DGENRE=
TTITLE0=Caf  Com Leite
TTITLE1=Beija, Me Beija, Me Beija
TTITLE2=Meu Lai -Rai 
TTITLE3=Madalena Do Jucu
TTITLE4=Disritmia
TTITLE5=Se Eu Soubesse Que Tu Vinhas
TTITLE6=Samba Da Cabrocha Bamba
TTITLE7=Canta, Canta Minha Gente
TTITLE8=Quem   Do Mar n o Enjoa
TTITLE9=Iai  do Cais Dourado
TTITLE10=Mar  Mansa (Mar Calmado)
TTITLE11=Ex-Amor
EXTD=
EXTT0=
EXTT1=
EXTT2=
EXTT3=
EXTT4=
EXTT5=
EXTT6=
EXTT7=
EXTT8=
EXTT9=
EXTT10=
EXTT11=
PLAYORDER=
